# xmcd
#
# Track frame offsets: 
#        150
#        17834
#        33375
#        54066
#        69037
#        88042
#        107738
#        129058
#        148917
#        170498
#        192253
#        203582
#        220011
#        232075
#        251643
#        271263
#
# Disc length: 4041 seconds
#
# Revision: 0
# Processed by: cddbd v1.5.2PL0 Copyright (c) Steve Scherf et al.
# Submitted via: ExactAudioCopy v1.1
#
DISCID=d70fc710
DTITLE=I Muvrini - Pianetta
DYEAR=2016
DGENRE=Folklore
TTITLE0=Hà dui pulmoni
TTITLE1=I très castagnoni
TTITLE2=U zitellu è u mare
TTITLE3=a - bi - ci -di
TTITLE4=Aiò veni
TTITLE5=A ghjallina negra
TTITLE6=Lettera da u Burkina
TTITLE7=A Girvientula
TTITLE8=Fraternale
TTITLE9=Tù chì sì natu avà
TTITLE10=Elles sont libres les pensées
TTITLE11=Balla o Minnà
TTITLE12=Canzunetta
TTITLE13=U ciocciu è a volpe
TTITLE14=Una muvrella
TTITLE15=Aux enfants - le pique nique
EXTD=
EXTT0=
EXTT1=
EXTT2=
EXTT3=
EXTT4=
EXTT5=
EXTT6=
EXTT7=
EXTT8=
EXTT9=
EXTT10=
EXTT11=
EXTT12=
EXTT13=
EXTT14=
EXTT15=
PLAYORDER=
